<?xml version="1.0" standalone="no"?>
<!DOCTYPE svg PUBLIC "-//W3C//DTD SVG 20010904//EN"
 "http://www.w3.org/TR/2001/REC-SVG-20010904/DTD/svg10.dtd">
<svg version="1.0" xmlns="http://www.w3.org/2000/svg"
 width="260.000000pt" height="260.000000pt" viewBox="0 0 260.000000 260.000000"
 preserveAspectRatio="xMidYMid meet">
<metadata>
Created by potrace 1.11, written by Peter Selinger 2001-2013
</metadata>
<g transform="translate(0.000000,260.000000) scale(0.100000,-0.100000)"
fill="#000000" stroke="none">
<path d="M1043 2309 c-18 -3 -43 -13 -56 -22 -23 -15 -28 -14 -66 5 -37 18
-47 19 -82 9 -22 -7 -53 -27 -71 -46 -20 -23 -40 -35 -57 -35 -34 0 -85 -32
-108 -67 -12 -19 -17 -43 -16 -79 2 -45 -1 -53 -21 -64 -68 -36 -102 -154 -63
-217 4 -6 -5 -21 -18 -33 -14 -13 -30 -40 -36 -60 -10 -32 -8 -44 15 -95 15
-32 29 -76 32 -99 8 -59 44 -128 80 -151 25 -16 43 -46 87 -150 31 -71 106
-245 167 -385 61 -140 131 -301 155 -357 75 -174 104 -205 171 -189 26 7 229
91 324 134 25 11 110 48 190 82 80 34 163 69 185 79 22 10 61 28 87 39 51 23
78 54 78 89 0 20 -36 128 -60 178 -19 41 -70 167 -70 174 0 4 31 17 70 30 110
35 162 91 161 175 0 51 -1 54 -99 316 -104 277 -116 303 -154 335 -42 36 -79
30 -205 -35 -53 -27 -101 -46 -105 -42 -4 4 -20 39 -35 77 -21 52 -27 80 -23
110 8 59 1 83 -32 113 -33 30 -55 52 -97 100 -24 26 -37 32 -69 32 -25 0 -49
-8 -66 -21 l-26 -20 -11 24 c-21 46 -98 79 -156 66z m768 -706 c17 -31 89
-256 89 -279 0 -16 -9 -22 -64 -38 l-44 -13 -57 136 c-32 75 -64 150 -71 167
l-13 31 52 26 c59 29 78 24 108 -30z m-1231 -177 c12 -12 13 -39 1 -32 -15 10
-44 79 -47 115 -3 32 -1 29 16 -19 11 -30 25 -59 30 -64z"/>
</g>
</svg>
